/* XPM */
static char *result[] = {
/* columns rows colors chars-per-pixel */
"64 64 5 1 ",
"  c #3D253B",
". c #A17877",
"X c #CCA8A3",
"o c #EBD0C5",
"O c None",
/* pixels */
"OOOOOOOOOOOOOOOOOOOOOOOOOOOOOOOOOOOOOOOOOOOOOOOOOOOOOOOOOOOOOOOO",
"OOOOOOOOOOOOOOOOOOOOOOOOOOOOOOOOOOOOOOOOOOOOOOOOOOOOOOOOOOOOOOOO",
"OOOOOOOOOOOOOOOOOOOOOOOOOOOOOOOOOOOOOOOOOOOOOOOOOOOOOOOOOOOOOOOO",
"OOOOOOOOOOOOOOOOOOOOOOOOOOOOOOOOOOOOOOOOOOOOOOOOOOOOOOOOOOOOOOOO",
"OOOOOOOOOOOOOOOOOOOOOOOOOOOOOOOOOOOOOOOOOOOOOOOOOOOOOOOOOOOOOOOO",
"OOOOOOOOOOOOOOOOOOOOOOOOOOOOOOOOOOOOOOOOOOOOOOOOOOOOOOOOOOOOOOOO",
"OOOOOOOOOOOOOOOOOOOOOOOOOOOOOOOOOOOOOOOOOOOOOOOOOOOOOOOOOOOOOOOO",
"OOOOOOOOOOOOOOOOOOOOOOOOOOOOOOOOOOOOOOOOOOOOOOOOOOOOOOOOOOOOOOOO",
"OOOOOOOOOOOOOOOOOOOOOOOOOOOOOOOOOOOOOOOOOOOOOOOOOOOOOOOOOOOOOOOO",
"OOOOOOOOOOOOOOOOOOOOOOOOOOOOOOOOOOOOOOOOOOOOOOOOOOOOOOOOOOOOOOOO",
"OOOOOOOOOOOOOOOOOOOOOOOOOOOOOOOOOOOOOOOOOOOOOOOOOOOOOOOOOOOOOOOO",
"OOOOOOOOOOOOOOOOOOOOOOOOOOOOOOOOOOOOOOOOOOOOOOOOOOOOOOOOOOOOOOOO",
"OOOOOOOOOOOOOOOOOOOOOOOOOOOOOOOOOOOOOOOOOOOOOOOOOOOOOOOOOOOOOOOO",
"OOOOOOOOOOOOOOOOOOOOOOOO                   OOOOOOOOOOOOOOOOOOOOO",
"OOOOOOOOOOOOOOOOOOOOOOOO                   OOOOOOOOOOOOOOOOOOOOO",
"OOOOOOOOOOOOOOOOOOOOOOOO                   OOOOOOOOOOOOOOOOOOOOO",
"OOOOOOOOOOOOOOOOOOOOO   XXXXXXXXooooooooXXX  OOOOOOOOOOOOOOOOOOO",
"OOOOOOOOOOOOOOOOOOOOO   XXXXXXXXooooooooXXX  OOOOOOOOOOOOOOOOOOO",
"OOOOOOOOOOOOOOOOOOOOO   XXXXXXXXooooooooXXX  OOOOOOOOOOOOOOOOOOO",
"OOOOOOOOOOOOOOOOOOO  XXXXXXXXoooooooooooooo  OOOOOOOOOOOOOOOOOOO",
"OOOOOOOOOOOOOOOOOOO  XXXXXXXXoooooooooooooo  OOOOOOOOOOOOOOOOOOO",
"OOOOOOOOOOOOOOOOOOO  XXXXXXXXoooooooooooooo  OOOOOOOOOOOOOOOOOOO",
"OOOOOOOOOOOOOOOOOOO  XXXXXXXXoooooooooooooo  OOOOOOOOOOOOOOOOOOO",
"OOOOOOOOOOOOOOOOOOO  XXXXXXXXoooooooooooooo  OOOOOOOOOOOOOOOOOOO",
"OOOOOOOOOOOOOOOOOOO  XXXXXXXX      ooooo     OOOOOOOOOOOOOOOOOOO",
"OOOOOOOOOOOOOOOOOOO  XXXXXXXX      ooooo     OOOOOOOOOOOOOOOOOOO",
"OOOOOOOOOOOOOOOOOOO  XXXXXXXX      ooooo     OOOOOOOOOOOOOOOOOOO",
"OOOOOOOOOOOOOOOOOOO  XXXXXXXX      ooooo     OOOOOOOOOOOOOOOOOOO",
"OOOOOOOOOOOOOOOOOOO  XXXXXXXX      ooooo     OOOOOOOOOOOOOOOOOOO",
"OOOOOOOOOOOOOOOOOOOOO   XXXXXXXXooooooooooo  OOOOOOOOOOOOOOOOOOO",
"OOOOOOOOOOOOOOOOOOOOO   XXXXXXXXooooooooooo  OOOOOOOOOOOOOOOOOOO",
"OOOOOOOOOOOOOOOOOOOOO   XXXXXXXXooooooooooo  OOOOOOOOOOOOOOOOOOO",
"OOOOOOOOOOOOOOOOOOOOOOOO     ...ooo..oooXXX  OOOOOOOOOOOOOOOOOOO",
"OOOOOOOOOOOOOOOOOOOOOOOO     ...ooo..oooXXX  OOOOOOOOOOOOOOOOOOO",
"OOOOOOOOOOOOOOOOOOOOOOOO     ...ooo..oooXXX  OOOOOOOOOOOOOOOOOOO",
"OOOOOOOOOOOOOOOOOOOOOOOO   ooXXX...........  OOOOOOOOOOOOOOOOOOO",
"OOOOOOOOOOOOOOOOOOOOOOOO   ooXXX...........  OOOOOOOOOOOOOOOOOOO",
"OOOOOOOOOOOOOOOOOOOOO   oooXXXXXoooooooo...  OOOOOOOOOOOOOOOOOOO",
"OOOOOOOOOOOOOOOOOOOOO   oooXXXXXoooooooo...  OOOOOOOOOOOOOOOOOOO",
"OOOOOOOOOOOOOOOOOOOOO   oooXXXXXoooooooo...  OOOOOOOOOOOOOOOOOOO",
"OOOOOOOOOOOOOOOOOOOOO   XXX..oooXXXXXXXX...  OOOOOOOOOOOOOOOOOOO",
"OOOOOOOOOOOOOOOOOOOOO   XXX..oooXXXXXXXX...  OOOOOOOOOOOOOOOOOOO",
"OOOOOOOOOOOOOOOOOOOOO   XXX..oooXXXXXXXX...  OOOOOOOOOOOOOOOOOOO",
"OOOOOOOOOOOOOOOOOOOOOOOO   ..ooooooooooo   OOOOOOOOOOOOOOOOOOOOO",
"OOOOOOOOOOOOOOOOOOOOOOOO   ..ooooooooooo   OOOOOOOOOOOOOOOOOOOOO",
"OOOOOOOOOOOOOOOOOOOOO   ........     ooo   OOOOOOOOOOOOOOOOOOOOO",
"OOOOOOOOOOOOOOOOOOOOO   ........     ooo   OOOOOOOOOOOOOOOOOOOOO",
"OOOOOOOOOOOOOOOOOOOOO   ........     ooo   OOOOOOOOOOOOOOOOOOOOO",
"OOOOOOOOOOOOOOOOOOOOO   .....   OOO  oooooo  OOOOOOOOOOOOOOOOOOO",
"OOOOOOOOOOOOOOOOOOOOO   .....   OOO  oooooo  OOOOOOOOOOOOOOOOOOO",
"OOOOOOOOOOOOOOOOOOOOO   .....   OOO  oooooo  OOOOOOOOOOOOOOOOOOO",
"OOOOOOOOOOOOOOOOOOOOOOOOOOOOOOOOOOOOOOOOOOOOOOOOOOOOOOOOOOOOOOOO",
"OOOOOOOOOOOOOOOOOOOOOOOOOOOOOOOOOOOOOOOOOOOOOOOOOOOOOOOOOOOOOOOO",
"OOOOOOOOOOOOOOOOOOOOOOOOOOOOOOOOOOOOOOOOOOOOOOOOOOOOOOOOOOOOOOOO",
"OOOOOOOOOOOOOOOOOOOOOOOOOOOOOOOOOOOOOOOOOOOOOOOOOOOOOOOOOOOOOOOO",
"OOOOOOOOOOOOOOOOOOOOOOOOOOOOOOOOOOOOOOOOOOOOOOOOOOOOOOOOOOOOOOOO",
"OOOOOOOOOOOOOOOOOOOOOOOOOOOOOOOOOOOOOOOOOOOOOOOOOOOOOOOOOOOOOOOO",
"OOOOOOOOOOOOOOOOOOOOOOOOOOOOOOOOOOOOOOOOOOOOOOOOOOOOOOOOOOOOOOOO",
"OOOOOOOOOOOOOOOOOOOOOOOOOOOOOOOOOOOOOOOOOOOOOOOOOOOOOOOOOOOOOOOO",
"OOOOOOOOOOOOOOOOOOOOOOOOOOOOOOOOOOOOOOOOOOOOOOOOOOOOOOOOOOOOOOOO",
"OOOOOOOOOOOOOOOOOOOOOOOOOOOOOOOOOOOOOOOOOOOOOOOOOOOOOOOOOOOOOOOO",
"OOOOOOOOOOOOOOOOOOOOOOOOOOOOOOOOOOOOOOOOOOOOOOOOOOOOOOOOOOOOOOOO",
"OOOOOOOOOOOOOOOOOOOOOOOOOOOOOOOOOOOOOOOOOOOOOOOOOOOOOOOOOOOOOOOO",
"OOOOOOOOOOOOOOOOOOOOOOOOOOOOOOOOOOOOOOOOOOOOOOOOOOOOOOOOOOOOOOOO"
};
