/* XPM */
static char *result[] = {
/* columns rows colors chars-per-pixel */
"64 64 6 1 ",
"  c black",
". c #521268",
"X c #702688",
"o c #9C54B4",
"O c #FCD6FF",
"+ c None",
/* pixels */
"++++++++++++++++++++++++++++++++++++++++++++++++++++++++++++++++",
"++++++++++++++++++++++++++++++++++++++++++++++++++++++++++++++++",
"++++++++++++++++++++++++++++++++++++++++++++++++++++++++++++++++",
"++++++++++++++++++++++++++++++....++++++++++++++++++++++++++++++",
"+++++++++++++++++++++++++++++...XX..++++++++++++++++++++++++++++",
"+++++++++++++++++++++++++++...XXXXXX.+++++++++++++++++++++++++++",
"+++++++++++++++++++++++++++...XXXXXX.+++++++++++++++++++++++++++",
"+++++++++++++++++++++++++++...XXooXX.+++++++++++++++++++++++++++",
"++++++++++++++++++++++++++...Xooo.ooX.++++++++++++++++++++++++++",
"++++++++++++++++++++++++++...Xooo.ooX.++++++++++++++++++++++++++",
"++++++++++++++++++++++++++...Xoo.X..X.++++++++++++++++++++++++++",
"++++++++++++++++++++++++++...XXX.X..X. +++++++++++++++++++++++++",
"+++++++++++++++++++++++++..XXo..XXXX.X..++++++++++++++++++++++++",
"+++++++++++++++++++++++++..XXo..XXXX.X..++++++++++++++++++++++++",
"+++++++++++++++++++++++++..ooo..XXXX.X..++++++++++++++++++++++++",
"+++++++++++++++++++++++++..OO.XXXXXX.o..++++++++++++++++++++++++",
"+++++++++++++++++++++++++..OO.XXXXXX.o..++++++++++++++++++++++++",
"+++++++++++++++++++++++++..OO.XXXXXX.o..++++++++++++++++++++++++",
"+++++++++++++++++++++++++..OO.XXXXXX.o..++++++++++++++++++++++++",
"++++++++++++++++++++++++ ..oo.XXooXX.o..++++++++++++++++++++++++",
"++++++++++++++++++++++++ ..oo.XXooXX.X..++++++++++++++++++++++++",
"++++++++++++++++++++++++ ..oo.XXooXX.X..++++++++++++++++++++++++",
"+++++++++++++++++++++++...X..Xoo..OOX.oo.+++++++++++++++++++++++",
"+++++++++++++++++++++++...X..X..Xo..O.oo.+++++++++++++++++++++++",
"+++++++++++++++++++++++...X..X..XX..O.XX.+++++++++++++++++++++++",
"+++++++++++++++++++++++...X..X..XX..O.XX.+++++++++++++++++++++++",
"+++++++++++++++++++++++...X..X..XXXX.X...+++++++++++++++++++++++",
"+++++++++++++++++++++++...X..X..XXXX.X...+++++++++++++++++++++++",
"+++++++++++++++++++++++...X..X..XXXX.X...+++++++++++++++++++++++",
"+++++++++++++++++++++++...X..X..Xooo.X...+++++++++++++++++++++++",
"+++++++++++++++++++++++...o..X..o.oo.XXX.+++++++++++++++++++++++",
"+++++++++++++++++++++++...o..o..X.ooX.oo.+++++++++++++++++++++++",
"+++++++++++++++++++++++...o..o..X.ooX.oo.+++++++++++++++++++++++",
"+++++++++++++++++++++++...o..o..Xo..o.oo.+++++++++++++++++++++++",
"+++++++++++++++++++++++...o..o..XX..o.OO.+++++++++++++++++++++++",
"+++++++++++++++++++++++...o..oOO..XXX.OO.+++++++++++++++++++++++",
"+++++++++++++++++++++++...o..oOO..XXX.OO.+++++++++++++++++++++++",
"+++++++++++++++++++++++...X..oooOoXX.OXX.+++++++++++++++++++++++",
"+++++++++++++++++++++++...X..XoooXXX.OXX.+++++++++++++++++++++++",
"+++++++++++++++++++++++...XXX.XXXXXX.Xoo.+++++++++++++++++++++++",
"+++++++++++++++++++++++...XXX.XXXXXX.Xoo.+++++++++++++++++++++++",
"+++++++++++++++++++++++...XXX.XXXXoo.Xoo.+++++++++++++++++++++++",
"++++++++++++++++++++++++ ..XXo..Xo..Xo..++++++++++++++++++++++++",
"++++++++++++++++++++++++ ..XXo..Xo..Xo..++++++++++++++++++++++++",
"++++++++++++++++++++++++ ..XXo..oo..o...++++++++++++++++++++++++",
"+++++++++++++++++++++++++....Xoo..ooo...++++++++++++++++++++++++",
"+++++++++++++++++++++++++....Xoo..ooo...++++++++++++++++++++++++",
"+++++++++++++++++++++++++....Xoo..ooo...++++++++++++++++++++++++",
"+++++++++++++++++++++++++....XXXoooo.o..++++++++++++++++++++++++",
"+++++++++++++++++++++++++..XX.XXooXX.X..++++++++++++++++++++++++",
"+++++++++++++++++++++++++..oo.XXXX..XX..++++++++++++++++++++++++",
"+++++++++++++++++++++++++..oo.XXXX..XX..++++++++++++++++++++++++",
"++++++++++++++++++++++++++.XXo..XX..X. +++++++++++++++++++++++++",
"++++++++++++++++++++++++++...ooo..ooo.++++++++++++++++++++++++++",
"++++++++++++++++++++++++++...XooOOooX.++++++++++++++++++++++++++",
"++++++++++++++++++++++++++...XooOOooX.++++++++++++++++++++++++++",
"+++++++++++++++++++++++++++...XXooXX.+++++++++++++++++++++++++++",
"+++++++++++++++++++++++++++...XXXXXX.+++++++++++++++++++++++++++",
"+++++++++++++++++++++++++++++...XX..++++++++++++++++++++++++++++",
"+++++++++++++++++++++++++++++...XX..++++++++++++++++++++++++++++",
"++++++++++++++++++++++++++++++....++++++++++++++++++++++++++++++",
"++++++++++++++++++++++++++++++++++++++++++++++++++++++++++++++++",
"++++++++++++++++++++++++++++++++++++++++++++++++++++++++++++++++",
"++++++++++++++++++++++++++++++++++++++++++++++++++++++++++++++++"
};
