/* XPM */
static char *result[] = {
/* columns rows colors chars-per-pixel */
"64 64 23 1 ",
"  c black",
". c #040404",
"X c #1E1E1E",
"o c #3F3013",
"O c #2B2F32",
"+ c gray21",
"@ c #46000A",
"# c #770000",
"$ c #5D4717",
"% c #4D4C4B",
"& c #7D7B76",
"* c #D80000",
"= c #84482A",
"- c #AA5A33",
"; c #D97F40",
": c #C99236",
"> c #F6A954",
", c #A29E96",
"< c #BEBBB5",
"1 c #F7D099",
"2 c #DADADA",
"3 c gray91",
"4 c None",
/* pixels */
"4444444444444444444444444444444444444444444444444444444444444444",
"4444444444444444444444444444444444444444444444444444444444444444",
"4444444444444444444444444444444444444444444444444444444444444444",
"4444444444444444444444444444444444444444444444444444444444444444",
"4444444444444444444444444444444444444444444444444444444444444444",
"4444444444444444444444444444444444444444444444444444444444444444",
"4444444444444444444444444444444444444444444444444444444444444444",
"4444444444444444444444444444444444444444444444444444444444444444",
"4444444444444444444444444444444444444444444444444444444444444444",
"4444444444444444444444444444444444444444444444444444444444444444",
"4444444444444444444444444444444444444444444444444444444444444444",
"4444444444444444444444444444444444444444444444444444444444444444",
"444444444444444444444444444444    444444444444444444444444444444",
"444444444444444444444444444444    444444444444444444444444444444",
"4444444444444444444444444444  ****  4444444444444444444444444444",
"4444444444444444444444444444  ****  4444444444444444444444444444",
"44444444444444444444444444  ##****##  44444444444444444444444444",
"44444444444444444444444444  ########  44444444444444444444444444",
"44444444444444444444444444  ########  44444444444444444444444444",
"44444444444444444444444444  @@####@@  44444444444444444444444444",
"44444444444444444444444444  @@####@@  44444444444444444444444444",
"444444444444444444444444  XXXX@@@@XXXX 4444444444444444444444444",
"444444444444444444444444  XXXX@@@@XXXX 4444444444444444444444444",
"444444444444444444444OO XX++%%&&&&%%++X  44444444444444444444444",
"444444444444444444444OO XX++%%&&&&%%++X  44444444444444444444444",
"4444444444444444444OO22O++%%%%,,,,%%%%+XX  444444444444444444444",
"4444444444444444444OO22O++%%%%,,,,%%%%+XX  444444444444444444444",
"4444444444444444444OO22O&&++%%&&&&%%++&&&  444444444444444444444",
"4444444444444444444OO22O&&++%%&&&&%%++&&&  444444444444444444444",
"4444444444444444444OO22O&&,,,,<<<<,,,,&%%  444444444444444444444",
"4444444444444444444OO22O&&,,,,<<<<,,,,&%%  444444444444444444444",
"4444444444444444444OO22O,,,,<<<<<<<<,,,XX  444444444444444444444",
"44444444444444444..:::::XX33..1111..33X  44444444444444444444444",
"44444444444444444..:::::XX33..1111..33X  44444444444444444444444",
"4444444444444444444..>> %%33..1111..33%  44444444444444444444444",
"4444444444444444444..>> %%33..1111..33%  44444444444444444444444",
"4444444444444444444..>>;++-->>>>>>>>--+..44444444444444444444444",
"4444444444444444444..>>;++-->>>>>>>>--+..44444444444444444444444",
"444444444444444444444...&&&&========&&&&&..444444444444444444444",
"444444444444444444444...&&&&========&&&&&..444444444444444444444",
"444444444444444444444444..%%&&&&&&&&..>>>..444444444444444444444",
"444444444444444444444444..%%&&&&&&&&..>>>..444444444444444444444",
"444444444444444444444444..%%%%%%%%%%..;>>..444444444444444444444",
"444444444444444444444444..%%%%%%%%%%..;>>..444444444444444444444",
"444444444444444444444444..++%%%%%%%%++...44444444444444444444444",
"444444444444444444444444..++%%%%%%%%++...44444444444444444444444",
"444444444444444444444444..oooo....oooo.4444444444444444444444444",
"444444444444444444444444..oooo....oooo.4444444444444444444444444",
"44444444444444444444444444444444..$$$$.4444444444444444444444444",
"4444444444444444444444444444444444444444444444444444444444444444",
"4444444444444444444444444444444444444444444444444444444444444444",
"4444444444444444444444444444444444444444444444444444444444444444",
"4444444444444444444444444444444444444444444444444444444444444444",
"4444444444444444444444444444444444444444444444444444444444444444",
"4444444444444444444444444444444444444444444444444444444444444444",
"4444444444444444444444444444444444444444444444444444444444444444",
"4444444444444444444444444444444444444444444444444444444444444444",
"4444444444444444444444444444444444444444444444444444444444444444",
"4444444444444444444444444444444444444444444444444444444444444444",
"4444444444444444444444444444444444444444444444444444444444444444",
"4444444444444444444444444444444444444444444444444444444444444444",
"4444444444444444444444444444444444444444444444444444444444444444",
"4444444444444444444444444444444444444444444444444444444444444444",
"4444444444444444444444444444444444444444444444444444444444444444"
};
